<mxfile host="Electron" modified="2024-09-12T19:59:38.064Z" agent="Mozilla/5.0 (Windows NT 10.0; Win64; x64) AppleWebKit/537.36 (KHTML, like Gecko) draw.io/23.0.2 Chrome/120.0.6099.109 Electron/28.1.0 Safari/537.36" etag="Z-pVxky30LCtTFUJoXFn" version="23.0.2" type="device">
  <diagram name="Página-1" id="cVghsVA0Ikd34ES9qUJx">
    <mxGraphModel dx="880" dy="524" grid="1" gridSize="10" guides="1" tooltips="1" connect="1" arrows="1" fold="1" page="1" pageScale="1" pageWidth="827" pageHeight="1169" math="0" shadow="0">
      <root>
        <mxCell id="0" />
        <mxCell id="1" parent="0" />
        <mxCell id="3u14hGLyPMWo6bLth_yc-1" value="" style="rounded=0;whiteSpace=wrap;html=1;" parent="1" vertex="1">
          <mxGeometry x="40" y="40" width="780" height="530" as="geometry" />
        </mxCell>
        <mxCell id="SBuE8mRpjIRG6YhbZoKa-1" value="Gerente" style="shape=umlActor;verticalLabelPosition=bottom;verticalAlign=top;html=1;outlineConnect=0;" parent="1" vertex="1">
          <mxGeometry x="130" y="400" width="30" height="60" as="geometry" />
        </mxCell>
        <mxCell id="SBuE8mRpjIRG6YhbZoKa-2" value="Técnico de TI" style="shape=umlActor;verticalLabelPosition=bottom;verticalAlign=top;html=1;outlineConnect=0;" parent="1" vertex="1">
          <mxGeometry x="130" y="200" width="30" height="60" as="geometry" />
        </mxCell>
        <mxCell id="SBuE8mRpjIRG6YhbZoKa-9" value="" style="rounded=0;whiteSpace=wrap;html=1;rotation=-90;" parent="1" vertex="1">
          <mxGeometry x="225" y="85" width="460" height="450" as="geometry" />
        </mxCell>
        <mxCell id="SBuE8mRpjIRG6YhbZoKa-10" value="Cadastrar funcionários e técnicos" style="ellipse;whiteSpace=wrap;html=1;" parent="1" vertex="1">
          <mxGeometry x="254" y="360" width="160" height="60" as="geometry" />
        </mxCell>
        <mxCell id="SBuE8mRpjIRG6YhbZoKa-13" value="" style="endArrow=none;html=1;rounded=0;entryX=0;entryY=0.5;entryDx=0;entryDy=0;" parent="1" source="SBuE8mRpjIRG6YhbZoKa-1" target="SBuE8mRpjIRG6YhbZoKa-10" edge="1">
          <mxGeometry width="50" height="50" relative="1" as="geometry">
            <mxPoint x="140" y="180" as="sourcePoint" />
            <mxPoint x="190" y="130" as="targetPoint" />
          </mxGeometry>
        </mxCell>
        <mxCell id="-uRT2hCdru_BFCUyvC-0-1" value="Visualizar relatórios das métricas" style="ellipse;whiteSpace=wrap;html=1;" parent="1" vertex="1">
          <mxGeometry x="500" y="450" width="160" height="60" as="geometry" />
        </mxCell>
        <mxCell id="-uRT2hCdru_BFCUyvC-0-3" value="Visualizar métricas em tempo real" style="ellipse;whiteSpace=wrap;html=1;" parent="1" vertex="1">
          <mxGeometry x="430" y="190" width="180" height="70" as="geometry" />
        </mxCell>
        <mxCell id="dRw151_PDKpmcbDHrsgr-1" value="Abrir chamados" style="ellipse;whiteSpace=wrap;html=1;" parent="1" vertex="1">
          <mxGeometry x="274" y="240" width="140" height="60" as="geometry" />
        </mxCell>
        <mxCell id="HAsUzCJsMZtictW0petT-4" value="Acessar Dashboards" style="ellipse;whiteSpace=wrap;html=1;" parent="1" vertex="1">
          <mxGeometry x="254" y="450" width="160" height="60" as="geometry" />
        </mxCell>
        <mxCell id="HAsUzCJsMZtictW0petT-5" value="" style="endArrow=none;html=1;rounded=0;entryX=0;entryY=0.5;entryDx=0;entryDy=0;" parent="1" source="SBuE8mRpjIRG6YhbZoKa-1" target="HAsUzCJsMZtictW0petT-4" edge="1">
          <mxGeometry width="50" height="50" relative="1" as="geometry">
            <mxPoint x="150" y="186" as="sourcePoint" />
            <mxPoint x="270" y="150" as="targetPoint" />
          </mxGeometry>
        </mxCell>
        <mxCell id="HAsUzCJsMZtictW0petT-8" value="" style="html=1;verticalAlign=bottom;endArrow=classic;dashed=1;endSize=8;curved=0;rounded=0;endFill=1;" parent="1" target="-uRT2hCdru_BFCUyvC-0-1" edge="1">
          <mxGeometry x="-0.2171" y="13" relative="1" as="geometry">
            <mxPoint x="410" y="480" as="sourcePoint" />
            <mxPoint x="460" y="230" as="targetPoint" />
            <mxPoint as="offset" />
          </mxGeometry>
        </mxCell>
        <mxCell id="HAsUzCJsMZtictW0petT-9" value="&amp;lt;includes&amp;gt;" style="text;html=1;strokeColor=none;fillColor=none;align=center;verticalAlign=middle;whiteSpace=wrap;rounded=0;rotation=0;" parent="1" vertex="1">
          <mxGeometry x="425" y="450" width="60" height="30" as="geometry" />
        </mxCell>
        <mxCell id="HAsUzCJsMZtictW0petT-16" value="" style="html=1;verticalAlign=bottom;endArrow=none;dashed=1;endSize=8;curved=0;rounded=0;entryX=0.5;entryY=0;entryDx=0;entryDy=0;endFill=0;startArrow=classic;startFill=1;" parent="1" target="HAsUzCJsMZtictW0petT-17" edge="1">
          <mxGeometry x="-0.2171" y="13" relative="1" as="geometry">
            <mxPoint x="531" y="260" as="sourcePoint" />
            <mxPoint x="550" y="320" as="targetPoint" />
            <mxPoint as="offset" />
          </mxGeometry>
        </mxCell>
        <mxCell id="HAsUzCJsMZtictW0petT-17" value="Gerar alertas e notificações" style="ellipse;whiteSpace=wrap;html=1;" parent="1" vertex="1">
          <mxGeometry x="470" y="320" width="160" height="60" as="geometry" />
        </mxCell>
        <mxCell id="HAsUzCJsMZtictW0petT-19" value="&amp;lt;extends&amp;gt;" style="text;html=1;strokeColor=none;fillColor=none;align=center;verticalAlign=middle;whiteSpace=wrap;rounded=0;rotation=0;" parent="1" vertex="1">
          <mxGeometry x="550" y="280" width="60" height="30" as="geometry" />
        </mxCell>
        <mxCell id="HAsUzCJsMZtictW0petT-20" value="Aplicação Safe Server" style="shape=umlActor;verticalLabelPosition=bottom;verticalAlign=top;html=1;outlineConnect=0;" parent="1" vertex="1">
          <mxGeometry x="730" y="160" width="30" height="60" as="geometry" />
        </mxCell>
        <mxCell id="HAsUzCJsMZtictW0petT-22" value="Sistema de Monitoramento dos Servidores" style="rounded=0;whiteSpace=wrap;html=1;" parent="1" vertex="1">
          <mxGeometry x="230" y="60" width="240" height="20" as="geometry" />
        </mxCell>
        <mxCell id="oLSNPd7hw2oEZsVkzFfh-6" value="" style="endArrow=classic;html=1;rounded=0;" parent="1" edge="1">
          <mxGeometry width="50" height="50" relative="1" as="geometry">
            <mxPoint x="144.5" y="370" as="sourcePoint" />
            <mxPoint x="144.5" y="300" as="targetPoint" />
          </mxGeometry>
        </mxCell>
        <mxCell id="oLSNPd7hw2oEZsVkzFfh-7" value="Monitorar os componentes dos servidores" style="ellipse;whiteSpace=wrap;html=1;" parent="1" vertex="1">
          <mxGeometry x="250" y="120" width="160" height="60" as="geometry" />
        </mxCell>
        <mxCell id="oLSNPd7hw2oEZsVkzFfh-11" value="" style="endArrow=none;html=1;rounded=0;entryX=0;entryY=0.5;entryDx=0;entryDy=0;" parent="1" source="SBuE8mRpjIRG6YhbZoKa-2" target="dRw151_PDKpmcbDHrsgr-1" edge="1">
          <mxGeometry width="50" height="50" relative="1" as="geometry">
            <mxPoint x="170" y="434" as="sourcePoint" />
            <mxPoint x="264" y="400" as="targetPoint" />
          </mxGeometry>
        </mxCell>
        <mxCell id="oLSNPd7hw2oEZsVkzFfh-12" value="" style="endArrow=none;html=1;rounded=0;entryX=0;entryY=0.5;entryDx=0;entryDy=0;" parent="1" source="SBuE8mRpjIRG6YhbZoKa-2" target="oLSNPd7hw2oEZsVkzFfh-7" edge="1">
          <mxGeometry width="50" height="50" relative="1" as="geometry">
            <mxPoint x="170" y="245" as="sourcePoint" />
            <mxPoint x="284" y="280" as="targetPoint" />
          </mxGeometry>
        </mxCell>
        <mxCell id="oLSNPd7hw2oEZsVkzFfh-13" value="" style="endArrow=none;html=1;rounded=0;exitX=1;exitY=0.5;exitDx=0;exitDy=0;" parent="1" source="oLSNPd7hw2oEZsVkzFfh-7" target="HAsUzCJsMZtictW0petT-20" edge="1">
          <mxGeometry width="50" height="50" relative="1" as="geometry">
            <mxPoint x="170" y="229" as="sourcePoint" />
            <mxPoint x="260" y="160" as="targetPoint" />
          </mxGeometry>
        </mxCell>
        <mxCell id="oLSNPd7hw2oEZsVkzFfh-14" value="" style="html=1;verticalAlign=bottom;endArrow=none;dashed=1;endSize=8;curved=0;rounded=0;entryX=1;entryY=1;entryDx=0;entryDy=0;endFill=0;startArrow=classic;startFill=1;exitX=0;exitY=0;exitDx=0;exitDy=0;" parent="1" source="-uRT2hCdru_BFCUyvC-0-3" target="oLSNPd7hw2oEZsVkzFfh-7" edge="1">
          <mxGeometry x="-0.2171" y="13" relative="1" as="geometry">
            <mxPoint x="541" y="270" as="sourcePoint" />
            <mxPoint x="560" y="330" as="targetPoint" />
            <mxPoint as="offset" />
          </mxGeometry>
        </mxCell>
        <mxCell id="oLSNPd7hw2oEZsVkzFfh-15" value="&amp;lt;includes&amp;gt;" style="text;html=1;strokeColor=none;fillColor=none;align=center;verticalAlign=middle;whiteSpace=wrap;rounded=0;rotation=0;" parent="1" vertex="1">
          <mxGeometry x="370" y="180" width="60" height="30" as="geometry" />
        </mxCell>
      </root>
    </mxGraphModel>
  </diagram>
</mxfile>
